<svg width="24" height="24" viewBox="0 0 24 24" fill="none" xmlns="http://www.w3.org/2000/svg">
<path d="M21 6.625C21 6.90833 20.904 7.146 20.712 7.338C20.5207 7.52933 20.2833 7.625 20 7.625H4C3.71667 7.625 3.47933 7.52933 3.288 7.338C3.096 7.146 3 6.90833 3 6.625V4C3 3.71667 3.096 3.479 3.288 3.287C3.47933 3.09567 3.71667 3 4 3H20C20.2833 3 20.5207 3.09567 20.712 3.287C20.904 3.479 21 3.71667 21 4V6.625ZM21 13.35C21 13.6333 20.904 13.8707 20.712 14.062C20.5207 14.254 20.2833 14.35 20 14.35H4C3.71667 14.35 3.47933 14.254 3.288 14.062C3.096 13.8707 3 13.6333 3 13.35V10.625C3 10.3417 3.096 10.104 3.288 9.912C3.47933 9.72067 3.71667 9.625 4 9.625H20C20.2833 9.625 20.5207 9.72067 20.712 9.912C20.904 10.104 21 10.3417 21 10.625V13.35ZM21 20C21 20.2833 20.904 20.5207 20.712 20.712C20.5207 20.904 20.2833 21 20 21H4C3.71667 21 3.47933 20.904 3.288 20.712C3.096 20.5207 3 20.2833 3 20V17.35C3 17.0667 3.096 16.8293 3.288 16.638C3.47933 16.446 3.71667 16.35 4 16.35H20C20.2833 16.35 20.5207 16.446 20.712 16.638C20.904 16.8293 21 17.0667 21 17.35V20Z" fill="#1C1C1E"/>
</svg>
