<svg width="24" height="24" viewBox="0 0 24 24" fill="none" xmlns="http://www.w3.org/2000/svg">
<path d="M12 21.85C11.8167 21.85 11.646 21.8374 11.488 21.812C11.3293 21.7874 11.1833 21.75 11.05 21.7C8.98333 20.9334 7.29167 19.5667 5.975 17.6C4.65833 15.6334 4 13.4667 4 11.1V6.37502C4 5.95836 4.121 5.58336 4.363 5.25002C4.60433 4.91669 4.91667 4.67502 5.3 4.52502L11.3 2.27502C11.5333 2.19169 11.7667 2.15002 12 2.15002C12.2333 2.15002 12.4667 2.19169 12.7 2.27502L18.7 4.52502C19.0833 4.67502 19.396 4.91669 19.638 5.25002C19.8793 5.58336 20 5.95836 20 6.37502V11.1C20 13.4667 19.3417 15.6334 18.025 17.6C16.7083 19.5667 15.0167 20.9334 12.95 21.7C12.8167 21.75 12.6707 21.7874 12.512 21.812C12.354 21.8374 12.1833 21.85 12 21.85ZM12 19.9C13.6167 19.4 14.9667 18.4127 16.05 16.938C17.1333 15.4627 17.7667 13.8167 17.95 12H12V4.12502L6 6.37502V11.55C6 11.6667 6.01667 11.8167 6.05 12H12V19.9Z" fill="#1C1C1E"/>
</svg>
